<svg xmlns="http://www.w3.org/2000/svg" viewBox="0 0 24 24" fill="currentColor" role="img" aria-label="Ashby">
  <path fill-rule="evenodd" clip-rule="evenodd" d="M10.82 2.15h2.37l5.35 16.56c.34 1.06.67 1.67.98 1.82.3.15.67.23 1.12.23V22h-6.98v-1.24h.44c.68 0 1.02-.19 1.02-.57 0-.19-.11-.58-.33-1.16l-.45-1.43H9.44l-.48 1.48c-.16.49-.25.85-.25 1.08 0 .4.35.6 1.04.6h.39V22H3.36v-1.24c.49 0 .89-.12 1.2-.37.31-.25.61-.86.93-1.83l5.33-16.41Zm1.37 5.22-1.6 4.85h3.19l-1.59-4.85Zm-1.94 6.08h4.03l.43 1.37H9.82l.43-1.37Z"/>
</svg>
